<?xml version="1.0" encoding="utf-8"?>
<svg viewBox="0.9278 1.723 418.4265 497.044" width="418.426px" height="497.044px" preserveAspectRatio="none" xmlns="http://www.w3.org/2000/svg">
    <path class="cls-1"
        d="M 274.728 216.122 L 274.728 161.04 L 50.55 161.04 C 22.956 161.23 0.739 184.209 0.929 212.361 L 0.929 447.43 C 0.929 475.782 23.145 498.767 50.55 498.767 L 312.907 498.767 C 340.286 498.767 362.529 475.782 362.529 447.43 L 362.529 226.508 L 284.95 226.508 C 279.321 226.508 274.75 221.865 274.728 216.122 Z M 310.767 371.258 C 306.017 388.515 297.34 402.098 284.61 411.948 C 271.877 421.799 256.509 426.717 238.56 426.717 C 220.611 426.717 205.186 421.843 192.341 412.093 C 189.479 409.955 186.799 407.574 184.33 404.976 C 181.906 407.474 179.319 409.804 176.589 411.948 C 163.858 421.804 148.507 426.726 130.54 426.717 C 112.571 426.707 97.156 421.817 84.293 412.049 C 71.533 402.328 62.687 389.05 58.036 372.227 C 54.939 361.221 53.416 349.816 53.513 338.366 C 53.513 337.193 53.513 264.074 53.513 262.974 L 99.095 262.974 C 99.095 264.074 99.095 337.179 99.095 338.366 C 99.095 348.317 99.832 356.027 101.334 361.596 C 103.49 369.35 107.005 375.439 112.081 379.836 C 117.196 384.327 123.766 386.71 130.513 386.518 C 137.109 386.691 143.524 384.303 148.461 379.836 C 153.665 374.944 157.346 368.602 159.052 361.596 C 160.609 354.993 161.451 348.237 161.562 341.446 L 161.562 340.969 C 161.562 340.101 161.562 339.234 161.562 338.366 C 161.562 337.497 161.562 264.522 161.562 263.568 L 161.562 262.974 L 207.128 262.974 L 207.128 263.177 C 207.128 264.233 207.128 337.237 207.128 338.395 C 207.128 339.205 207.128 339.971 207.128 340.752 C 207.017 347.776 207.759 354.787 209.34 361.625 C 211.043 368.672 214.793 375.031 220.101 379.865 C 225.207 384.369 231.785 386.755 238.532 386.548 C 245.129 386.726 251.547 384.336 256.481 379.865 C 261.696 374.977 265.373 368.618 267.043 361.596 C 268.847 353.992 269.718 346.188 269.639 338.366 C 269.639 337.179 269.639 264.074 269.639 262.974 L 315.247 262.974 C 315.247 263.886 315.247 336.745 315.247 337.671 C 315.313 349.011 313.806 360.305 310.767 371.215 L 310.767 371.258 Z M 419.354 95.224 L 419.354 192.978 C 419.401 200.638 413.349 206.882 405.843 206.922 L 312.113 206.922 C 304.607 206.882 298.556 200.638 298.603 192.978 L 298.603 95.182 C 298.563 87.525 304.609 81.285 312.113 81.237 L 405.843 81.237 C 413.345 81.285 419.393 87.525 419.354 95.182 L 419.354 95.224 Z M 357.341 9.635 L 357.341 53.941 C 357.372 58.249 353.979 61.77 349.756 61.811 L 307.223 61.811 C 303.001 61.77 299.612 58.248 299.652 53.941 L 299.652 9.592 C 299.612 5.285 303.001 1.763 307.223 1.723 L 349.756 1.723 C 353.979 1.763 357.372 5.283 357.341 9.592 L 357.341 9.635 Z M 278.386 55.127 L 278.386 112.525 C 278.432 118.354 273.834 123.116 268.121 123.157 L 213.169 123.157 C 207.455 123.116 202.857 118.354 202.904 112.525 L 202.904 55.127 C 202.864 49.305 207.46 44.55 213.169 44.511 L 268.164 44.511 C 273.854 44.575 278.425 49.32 278.386 55.127 Z"
        style="fill: #ffffff;" transform="matrix(1, 0, 0, 1, 2.842170943040401e-14, 1.0658141036401503e-14)" id="object-0" />
</svg>